<svg id="outline" height="512" viewBox="0 0 512 512" width="512" xmlns="http://www.w3.org/2000/svg"><path d="m64 392h32v16h-32z"/><path d="m112 392h24v16h-24z"/><path d="m64 432h56v16h-56z"/><path d="m136 432h80v16h-80z"/><path d="m416 392h32v16h-32z"/><path d="m376 392h24v16h-24z"/><path d="m392 432h56v16h-56z"/><path d="m296 432h80v16h-80z"/><path d="m200 344h16v16h-16z"/><path d="m232 344h16v16h-16z"/><path d="m264 344h16v16h-16z"/><path d="m296 344h16v16h-16z"/><path d="m472 16h-432a24.0275 24.0275 0 0 0 -24 24v432a24.0275 24.0275 0 0 0 24 24h432a24.0275 24.0275 0 0 0 24-24v-432a24.0275 24.0275 0 0 0 -24-24zm8 24v24h-299.05566l-16-32h307.05566a8.00917 8.00917 0 0 1 8 8zm-440-8h107.05566l16 32h-131.05566v-24a8.00917 8.00917 0 0 1 8-8zm432 448h-432a8.00917 8.00917 0 0 1 -8-8v-392h448v392a8.00917 8.00917 0 0 1 -8 8z"/><circle cx="56" cy="48" r="8"/><circle cx="80" cy="48" r="8"/><circle cx="104" cy="48" r="8"/><path d="m336 272v-88a8.00038 8.00038 0 0 0 -4.11475-6.99316l-72-40a8.00313 8.00313 0 0 0 -7.7705 0l-72 40a8.00038 8.00038 0 0 0 -4.11475 6.99316v88a7.99946 7.99946 0 0 0 3.56248 6.65625l48 32a8 8 0 0 0 4.43752 1.34375h48a7.99983 7.99983 0 0 0 4.4375-1.34375l48-32a7.99943 7.99943 0 0 0 3.5625-6.65625zm-80-118.84863 55.52686 30.84863-55.52686 30.84863-55.52686-30.84863zm21.57764 142.84863h-43.15528l-42.42236-28.28125v-70.12256l60.11475 33.397a7.99973 7.99973 0 0 0 7.7705 0l60.11475-33.397v70.12256z"/></svg>