<svg xmlns="http://www.w3.org/2000/svg" xmlns:xlink="http://www.w3.org/1999/xlink" viewBox="0 0 592.16 435.64"><defs><style>.cls-1{fill:url(#linear-gradient);}.cls-2{fill:#fff;}</style><linearGradient id="linear-gradient" x1="196.1" y1="28.99" x2="417.4" y2="395.39" gradientTransform="matrix(0.99, 0.1, -0.1, 0.99, 24.08, -29.72)" gradientUnits="userSpaceOnUse"><stop offset="0.08" stop-color="#28749c"/><stop offset="0.18" stop-color="#54859f"/><stop offset="0.34" stop-color="#939ea3"/><stop offset="0.45" stop-color="#bbada5"/><stop offset="0.51" stop-color="#cab3a6"/><stop offset="0.63" stop-color="#a9afb0"/><stop offset="0.78" stop-color="#83abbc"/><stop offset="0.86" stop-color="#75a9c0"/></linearGradient></defs><title>full logo</title><g id="Layer_2" data-name="Layer 2"><g id="initials"><g id="full_logo" data-name="full logo"><path class="cls-1" d="M592.08,269.55c.5-8.4-1.35-17.36-7.09-23.84-5.37-6.06-13.42-11.87-21.88-11.84-5.34,0-10.68.08-16,.17a32.84,32.84,0,0,0,4.47-4.84c4.78-6.51,7.56-16.54,5.85-24.57s-5.79-16.13-12.85-20.86a35.31,35.31,0,0,0-5.33-2.94q9.43-.75,18.87-1.41c7.67-.52,16.48-6.89,20.86-12.85,4.77-6.51,7.55-16.54,5.84-24.57S579,125.86,572,121.14c-7.66-5.13-15.4-6.47-24.57-5.85q-20,1.36-39.95,3.26a28,28,0,0,0,.1-11.08c-1.72-8.09-5.78-16.14-12.85-20.87-7.68-5.13-15.38-6.42-24.57-5.84l-2.27.15c5.19-7.1,7.77-16.14,6-24.58C470,38.39,454.51,27.53,436.4,29.62c-22,2.54-43.77,6.1-65.38,10.37a29.16,29.16,0,0,0,.58-13.18c-1.72-8.09-5.78-16.14-12.85-20.87C351,.78,343.39-.38,334.18.1,268.23,3.53,203.74,18.87,140.41,36.8c-18.15,5.13-36.24,10.48-54.33,15.84-8.48,2.51-15.42,5.43-20.86,12.85C60.44,72,57.66,82,59.37,90.06s5.78,16.14,12.85,20.86c.61.41,1.25.81,1.9,1.2C58.79,117.5,43.61,123.33,28.39,129a26.06,26.06,0,0,0-9.66,6.43C6.32,141.75-2.47,155.18.62,169.73c3.52,16.55,19.63,30.56,37.43,26.71,16.22-3.52,32.35-7.41,48.41-11.57a29.42,29.42,0,0,0,2.83,13,39.44,39.44,0,0,0,7.39,10.28l-2.81.79c-8.44,2.38-15.48,5.52-20.86,12.85-4.78,6.51-7.56,16.54-5.85,24.57a40.7,40.7,0,0,0,3.17,9.32c-5.26,2-10.46,4.21-15.57,6.63-15.36,7.27-24.22,27.19-16.19,43,7.85,15.48,26.58,24,43,16.18a223.29,223.29,0,0,1,26.61-10.47c7.9-2.26,15.87-4.2,23.88-5.95a27.28,27.28,0,0,0,.42,8.49,35.88,35.88,0,0,0,3,8.62,30.07,30.07,0,0,0-4.36,2.92c-6.19,5-11.37,13.78-11.84,21.87-.44,7.45,1,15.34,5.3,21.55l-7.91,2.23c-8.45,2.41-15.47,5.5-20.86,12.85-4.78,6.5-7.56,16.54-5.85,24.57s5.78,16.13,12.85,20.86c6.8,4.55,16.34,8.19,24.57,5.84a1479.56,1479.56,0,0,1,280.71-51.46Q445.48,380.28,483,379q15.5-.42,31-.54c8.94-.06,16.65-1.26,23.84-7.1,6.19-5,11.37-13.78,11.84-21.87.5-8.4-1.35-17.36-7.09-23.84-3.93-4.44-9.33-8.76-15.26-10.73-.23-1.06-.53-2.08-.84-3.09,0-.34.07-.68.09-1a35.74,35.74,0,0,0-1.25-11.72c1.68-.07,3.37-.15,5.06-.21,8.69-.22,17.37-.37,26.06-.39,8.91,0,16.68-1.28,23.84-7.1C586.43,286.4,591.61,277.64,592.08,269.55Z"/><g id="kopp2l"><path class="cls-2" d="M403.27,90c-12,1.84-23.9,3.81-35.64,6.71-18.88,4.67-37.12,11.24-55.71,16.87-9.34,2.82-18.53,5.88-27.64,9.37-2,.75-4,1.41-5.9,2.29-1.5.68-3.63,1.5-4.21,3.19s0,3.63.18,5.27c.3,2.3.44,4.62.76,6.92q2,14.78,3.37,29.6c.89,9.66,1.83,19.41,2,29.11.07,2.95-.72,5.63-4.15,5.75-2.8.09-4.34-1.93-5-4.43a38.5,38.5,0,0,1-.78-7.88c-.29-5-.46-10-.8-15s-1-9.63-1.44-14.45c-.4-4.65-.62-9.32-1.08-14a76.62,76.62,0,0,0-2.38-13.69c-.36-1.23-.73-3.5-2.06-4.14-1-.47-2.16.21-3.06.61-8.62,3.87-17.43,7.4-26.14,11.08-9,3.82-18.3,7.11-27.36,10.91-4,1.66-8,3.32-11.92,5.2-2.69,1.31-2.18,5.27-1.11,8.51,3,8.87,5.84,17.66,8.88,26.52a224.63,224.63,0,0,1,7,24.39c.38,1.74,2.35,5.4-1.08,6.6a3.94,3.94,0,0,1-5-2.16c-1.85-4.36-2.61-8.6-3.81-12.83q-3.18-11.22-6.69-22.34c-1.5-4.73-3.12-9.43-4.71-14.13-.62-1.83-1.59-6.69-4.29-8.94-1.65-1.39-4.94.64-6.71,1.59-2.43,1.31-11,4.86-13.55,5.91-5.29,2.17-9.65,4.22-10.47,5.3-2.91,3.85-2.43,7.68-3,11.55-1.45,9.75-3.45,19.4-5.27,29.09-.7,3.74-1.11,7.54-2.38,11.16a9.22,9.22,0,0,1-3.69,4.57,2.88,2.88,0,0,1-3.91-2c-.72-2.73.32-5.92.75-8.63.68-4.38.8-8.82,1.66-13.18s1.78-8.64,2.59-13q.61-3.3,1.19-6.62a35.83,35.83,0,0,0,.95-6.29c-2.43.32-4.77,1.7-6.94,2.76a68.79,68.79,0,0,1-8.78,3.9c-1.61.52-4.51,1.43-5.53-.53-1.9-3.6,4-5,6.14-6.19a127.75,127.75,0,0,0,14.6-9c3.23-2.4,3.56-4.93,4.52-8.64q3.94-15.39,8.89-30.5c3.21-9.76,7.38-19.19,10.57-28.94.93-2.86-.4-5-1.15-7.74-.45-1.63.09-1.92,1.87-2.68s3.24.72,4.07,2.07a27.73,27.73,0,0,1,3.58,9c.55,2.57,2.19,7.85,2.8,10.4A120.13,120.13,0,0,0,180,130.3c1.66,4.73,2.39,6.92,4.08,11.64,1.06,3,2.78,8.85,4.09,9.61,1.6.93,6.31-1,8.55-2.22a126.06,126.06,0,0,1,12.54-5.51c9.18-3.78,18.46-7.29,27.66-11s18.47-7.5,27.75-11.13,18.41-6.79,27.76-9.83c27.48-9,54.43-19,83-24.24,12-2.21,24.19-4.49,36.36-5.87,3.31-.38,6.86-.94,10.18-1.24,3.62-.32,6.32-1.17,11.64.14,7.09,1.75-.91,4.79-4.25,5.29s-6.44,1.07-9.67,1.58C414.21,88.39,408.74,89.2,403.27,90ZM153.71,168.81a.33.33,0,0,0,.47.3c3.57-1.8,6-3.37,8.78-4.58,6.15-2.7,8.56-4.15,14.63-7,.86-.41,2.53-1.53,3.29-2s-.48-3.08-.94-4.38c-2.5-7-4.1-12.26-6.58-19.26-1.37-3.85-2.16-6.92-3.49-10.78a19.26,19.26,0,0,0-1.09-2.91,4.6,4.6,0,0,0-.73,1.47c-1,2.66-3.73,10.47-4.59,13.14-4.41,13.61-6.16,20.35-9.68,34.35A7.28,7.28,0,0,0,153.71,168.81Z"/><path class="cls-2" d="M337,297c.24-6.11.45-9.52-2.94-16.46-1.81-3.72-4.23-3-7.79-1.27s-9.59,5-13.31,6.33c-2.58.94-8,1.13-5.63-3.23,1.81-3.39,7.81-5.25,11.07-6.72,5-2.25,9.72-5,14.77-7.17,10.18-4.35,20.13-9.24,30.37-13.45,13.23-5.45,27.09-9.15,41-12.27a115,115,0,0,1,21-3.2c1.16,0,12.22-.49,9.9,2.54-1.65,2.15-4.57,2.57-7.09,2.83-3.25.34-6.48.69-9.71,1.28a254.09,254.09,0,0,0-40.61,11.17c-11.72,4.23-21.44,8.09-32.93,12.95-2.13.9-5.69,1.75-5.4,4.67.28,2.77,3.43,8,4.09,10.6,3.27,13-.39,27.06-6.84,38.13-6.2,10.66-17.85,22.26-31.37,18.47-13-3.63-18.45-17.52-22.37-29-8.58-25.18-6.62-54.43,7.79-77.14,3.16-5,7.63-9.82,13.76-10.71,6.32-.92,12,2.84,16.05,7.34,2.78,3.08,8.86,9.73,4.41,12.71-3.68,2.46-6-1.78-7.86-4.62-3-4.56-7.65-10.84-13.83-7.78-5.64,2.8-8.34,10.89-10.54,16.32-7.76,19.13-7.48,39.66-2.23,59.42,2.61,9.83,9,24.34,21.32,24,11.78-.26,20.58-16.15,22.88-26C335.34,305.32,336.88,299.62,337,297Z"/><path class="cls-2" d="M319.56,195.2c.55,0,1.06-.12,1.46-.18,1.81-.29,2.43-.81,2.24-2.65-.37-3.76-1.63-6.58-2.26-10.34-1.54-9.33-3.5-18.6-4.48-28-.16-1.59-.08-4.41-1.42-5.56-1.06-.91-3.35-.63-4.62-.37-3.61.77-2.49,4.36-1.88,7.06.41,1.87.67,3.76,1,5.65s1.07,3.84,1.07,5.65c0,3.58-5.22,3.53-7.82,3.82-1.69.18-3.42.65-4.41-1s-.87-4.91-1.08-6.77c-.26-2.34-.66-4.66-1-7-.17-1.29,0-2.28-.68-3.43-1.34-2.32-5.85-1.65-6.89.63s.34,4.77.64,7.13q.92,7.24,1.79,14.49c.59,4.78,1.2,9.55,1.74,14.34.28,2.47-.42,9.9,2.58,10.55a12.36,12.36,0,0,0,4.62-.53c1.82-.65,1.65-2.05,1.34-3.76-.67-3.74-1.13-7.5-1.79-11.24-.38-2.18-1.31-5-.1-7.06.79-1.36,2.2-1.41,3.65-1.55,1.94-.19,4-1.18,5.93-1.12,4.29.11,4.05,6.05,4.59,9.2.43,2.45.9,4.89,1.31,7.34.22,1.33,0,2.89,1,4C316.79,195.26,318.28,195.32,319.56,195.2Z"/><path class="cls-2" d="M366.35,152.66c-.05,4.33,1.37,8.76,1.73,13.1.3,3.59.68,7.17.89,10.77.07,1.38.44,3-.93,3.8a4.69,4.69,0,0,1-4.41-.11c-2-1.42-1.89-5.39-2.09-7.53-.76-8.13-1.94-16.28-3.06-24.37-.29-2.13-1.35-6-.37-8,.66-1.37,2.84-2.2,4.27-2,2.22.28,3.88,2.31,5.4,3.75a108,108,0,0,1,9.11,9.29c2.4,2.91,4.62,6,7.25,8.71a18.28,18.28,0,0,0,1.76,1.65c-.61-7.65-3.7-15-5.56-22.35-.48-1.91-1.35-4.83,1-5.81a4.75,4.75,0,0,1,6.26,2.77c1.16,3,1.45,6.34,2.17,9.49a217,217,0,0,1,3.84,21.6c.29,2.3,1.1,5.59-1.45,6.81a4.92,4.92,0,0,1-5.83-.79c-1.94-1.76-3.26-4.1-4.92-6.1s-3.46-4.08-5.29-6c-1.61-1.7-3.36-3.21-4.92-4.95C370.26,155.26,368,152.16,366.35,152.66Z"/><path class="cls-2" d="M228.07,189.9a3.18,3.18,0,0,0-.28,1.83c.05,4.8.26,9.59.35,14.39,0,2.28.1,4.57.09,6.86,0,1.66.16,3.83-.56,5.38-.6,1.3-2.06,1.45-3.35,1.17a2.71,2.71,0,0,1-2.3-2.37,38.57,38.57,0,0,1-.67-9.17c0-8.75-.4-17.48.15-26.23.09-1.38.17-3.67,1.42-4.58a6.27,6.27,0,0,1,3.76-.53c1.41.21,2.18,1.71,2.85,2.83a39.67,39.67,0,0,0,3,4.51c3,3.8,5.85,7.73,9,11.42,1.47,1.73,3,3.38,4.58,5,.41.42,1.53,1.74,2.23,1.61s.64-1.78.57-2.45c-.56-5-1.21-9.92-1.95-14.85-.35-2.36-.69-4.69-.94-7.06a42.51,42.51,0,0,1-.68-6.25c.09-2,1.29-2.62,3.11-2.8s3,.23,3.43,2.19c.35,1.73.53,3.5.72,5.26.45,4.17,1,8.33,1.39,12.51.47,4.55.89,9.1,1.42,13.64.22,1.82.4,3.64.66,5.45.2,1.43.83,3.47.22,4.88s-2.65.92-3.9,1c-1.73,0-2.48.06-3.9-1-2.74-2.07-4.76-4.82-6.85-7.49-2.51-3.21-5.13-6.34-7.74-9.47-1.23-1.47-2.26-3.09-3.49-4.54-.4-.48-1.33-1.63-2.08-1.31A.65.65,0,0,0,228.07,189.9Z"/><path class="cls-2" d="M419.67,122.09a2.18,2.18,0,0,0-.22-.4c-.55-.74-1.92-1-2.75-1.18-1.32-.27-3.08-.68-3.62.87-.45,1.32-.09,2.82-.12,4.18,0,1.63-.3,3.24-.39,4.86a38.6,38.6,0,0,1-.45,4.68c-.13.73-.43,2.84-1.55,2.71-1.8-.22-3.42-2.21-4.61-3.42a84.58,84.58,0,0,0-7.24-6.93c-.7-.55-1.86-1.86-2.79-1.83-.72,0-1.56.91-2,1.37s-1.44,1.36-1.46,2.1c0,.89,1.2,1.83,1.76,2.43,2,2.19,4.22,4.19,6.31,6.31,1.52,1.54,2.92,3.14,4.57,4.56a38.59,38.59,0,0,1,4.95,4.52c1.44,1.77.35,4.6,0,6.67-.52,3.35-1.14,6.69-1.88,10-.65,2.93-1.88,6.19-1.92,9.19,0,2.3,1.48,2.66,3.52,2.62,3-.07,3.58-2.06,4.39-4.62a63.06,63.06,0,0,0,2.12-10.45c1.07-7.65,1.76-15.35,2.38-23.05.31-3.74.8-7.47,1.08-11.21C419.83,125,420.12,123.21,419.67,122.09Z"/><path class="cls-2" d="M353.73,174.27a22,22,0,0,1-3.92,9.94c-4.47,5.94-12.41,6.4-16.84.36-3.91-5.34-5.16-12.74-5.56-19.19s0-17.77,7.69-20.21c9.4-3,16.29,8.12,18.06,15.74A36.09,36.09,0,0,1,353.73,174.27Zm-19.18-12.21c-.05,1.17,0,2.22,0,3a32.44,32.44,0,0,0,2.53,12c1.34,2.83,3.56,5,6.61,2.95,4.45-2.94,5-9.19,4.21-14-.67-4.11-2.52-11.28-7-12.82C336,151.54,334.75,157.63,334.55,162.06Z"/></g></g></g></g></svg>